<?xml version="1.0" standalone="no"?>
<!DOCTYPE svg PUBLIC "-//W3C//DTD SVG 20010904//EN"
 "http://www.w3.org/TR/2001/REC-SVG-20010904/DTD/svg10.dtd">
<svg version="1.0" xmlns="http://www.w3.org/2000/svg"
 width="4910.000000pt" height="4910.000000pt" viewBox="0 0 4910.000000 4910.000000"
 preserveAspectRatio="xMidYMid meet">

<g transform="translate(0.000000,4910.000000) scale(0.100000,-0.100000)"
fill="#000000" stroke="none">
<path d="M29455 39178 c-446 -467 -1116 -1087 -1776 -1642 -123 -104 -232
-197 -242 -206 -17 -16 -13 -25 93 -211 502 -880 780 -1657 877 -2449 25 -207
25 -763 0 -970 -90 -728 -332 -1438 -741 -2173 -30 -54 -48 -96 -41 -93 65 25
406 271 605 436 146 121 496 468 626 620 800 932 1334 2091 1518 3290 52 340
61 468 61 880 0 306 -4 419 -18 550 -67 603 -217 1140 -461 1645 -78 162 -203
386 -270 486 l-31 46 -200 -209z"/>
<path d="M20495 35228 c-3 -7 -48 -157 -100 -333 -112 -373 -350 -1092 -493
-1485 -415 -1142 -821 -2131 -1750 -4260 -737 -1689 -987 -2277 -1293 -3044
-921 -2302 -1363 -3961 -1449 -5441 -13 -223 -13 -687 0 -895 69 -1087 374
-2026 927 -2858 516 -777 1270 -1471 2253 -2074 209 -128 694 -398 715 -398 4
0 -23 33 -61 72 -288 304 -515 736 -633 1203 -261 1044 -128 2414 424 4335
340 1186 708 2228 1729 4903 738 1933 1021 2705 1343 3662 306 913 516 1618
698 2345 55 219 175 738 175 756 0 15 24 -14 44 -54 106 -211 313 -1073 696
-2894 88 -419 164 -774 168 -786 7 -21 15 -12 83 90 248 371 542 720 921 1093
387 382 629 583 1478 1230 315 240 595 456 699 541 2 2 -803 2893 -1191 4272
l-9 32 -2685 0 c-2139 0 -2686 -3 -2689 -12z"/>
<path d="M10495 14709 c-2119 -625 -3998 -1340 -5799 -2208 -148 -72 -187 -94
-182 -107 11 -28 285 -463 454 -719 2632 -3997 6431 -7103 10864 -8884 2331
-936 4815 -1489 7353 -1636 804 -46 1861 -48 2655 -5 4379 241 8553 1683
12140 4194 2248 1573 4224 3551 5792 5796 235 337 595 886 771 1176 l55 92
-181 87 c-1623 784 -3340 1454 -5197 2029 -297 92 -886 266 -900 266 -4 0 -73
-89 -154 -199 -762 -1039 -1660 -2008 -2639 -2849 -3352 -2878 -7689 -4318
-12117 -4022 -3390 227 -6610 1466 -9290 3574 -913 717 -1773 1554 -2530 2461
-258 309 -631 791 -760 983 -19 28 -42 51 -50 51 -8 0 -136 -36 -285 -80z
m29995 -1840 c145 -33 304 -160 372 -297 47 -93 61 -163 56 -282 -3 -89 -7
-104 -42 -176 -87 -177 -247 -274 -449 -274 -400 0 -681 420 -515 770 56 117
180 221 307 255 56 16 210 18 271 4z m-31560 -249 c193 -31 349 -178 395 -372
18 -79 19 -125 0 -213 -32 -152 -126 -283 -266 -367 -92 -56 -173 -78 -283
-78 -109 1 -158 11 -242 51 -74 36 -170 132 -209 209 -29 58 -55 158 -55 215
0 116 62 278 141 368 76 86 227 171 339 190 48 8 115 7 180 -3z m2910 -1821
c0 -3 -24 -1 -53 4 -69 12 -138 -7 -227 -64 -47 -30 -282 -259 -836 -813 -424
-424 -792 -800 -819 -836 -26 -36 -59 -89 -73 -119 -21 -47 -24 -63 -19 -126
3 -41 4 -75 1 -77 -2 -2 -126 118 -275 268 -239 240 -292 299 -254 285 6 -1
35 -5 66 -8 84 -8 165 35 319 171 119 105 1464 1462 1523 1536 99 124 111 154
104 253 l-5 80 274 -274 c151 -151 274 -277 274 -280z m27238 -888 c426 -213
568 -277 677 -306 68 -17 169 -19 234 -4 24 5 48 6 52 2 7 -7 -534 -520 -592
-562 -28 -20 -31 -10 -14 39 29 81 17 148 -33 185 -23 17 -804 433 -823 438
-4 1 -176 -154 -382 -346 l-376 -347 30 -68 c17 -37 85 -188 151 -337 161
-363 192 -421 240 -453 46 -30 141 -42 178 -22 13 7 26 8 31 3 9 -9 -515 -503
-543 -512 -7 -2 -9 4 -4 20 36 133 28 266 -28 432 -42 125 -866 2119 -909
2202 -62 115 -142 168 -222 146 -21 -6 -41 -9 -43 -7 -2 2 103 103 233 224
l237 219 742 -367 c407 -202 931 -462 1164 -579z m-26026 -190 l242 -160 2
-123 c2 -112 131 -2574 137 -2607 3 -20 960 1434 1017 1544 75 148 85 237 38
348 -12 26 -19 50 -16 52 6 6 598 -385 598 -395 0 -4 -34 -10 -75 -13 -98 -7
-165 -39 -237 -111 -80 -80 -86 -89 -834 -1231 -371 -566 -678 -1031 -683
-1033 -13 -4 -92 109 -131 187 -35 70 -63 170 -79 283 -6 40 -40 642 -76 1337
-35 695 -66 1265 -68 1267 -8 8 -992 -1490 -1034 -1574 -41 -82 -63 -156 -63
-211 0 -16 11 -65 24 -110 13 -45 20 -84 15 -86 -11 -7 -609 388 -605 400 1 6
36 13 77 16 91 6 147 31 216 93 78 71 121 132 648 931 563 852 597 906 639
995 28 59 31 73 30 160 -1 61 -7 111 -18 139 -16 44 -20 61 -12 61 3 0 114
-72 248 -159z m21776 -768 c-16 -37 -19 -60 -16 -117 6 -80 27 -136 103 -271
62 -108 957 -1544 1060 -1700 136 -204 214 -272 325 -282 33 -3 62 -9 64 -12
5 -8 -656 -421 -665 -416 -3 3 4 26 17 52 44 87 26 181 -73 363 -52 96 -1044
1688 -1117 1793 -110 156 -186 215 -286 222 -28 2 -53 5 -55 7 -6 5 637 407
652 408 8 0 5 -16 -9 -47z m-2042 -1437 c51 -121 92 -221 90 -223 -2 -2 -18 3
-37 11 -132 55 -399 61 -564 12 -198 -60 -341 -164 -410 -300 -36 -72 -37 -77
-33 -159 4 -70 10 -97 37 -151 95 -193 209 -231 836 -281 418 -33 514 -53 703
-141 94 -45 210 -156 259 -249 62 -119 78 -192 78 -365 0 -178 -12 -235 -76
-369 -57 -121 -116 -205 -206 -294 -205 -203 -467 -340 -784 -411 -128 -28
-346 -59 -360 -51 -7 5 -283 404 -313 453 -7 12 -4 14 15 8 221 -65 376 -83
552 -66 233 22 401 83 541 195 86 68 169 164 204 235 24 48 27 67 27 150 0 83
-4 103 -28 154 -58 124 -155 206 -296 250 -111 35 -189 44 -561 66 -352 21
-465 38 -593 92 -223 93 -391 271 -455 481 -21 68 -25 103 -26 202 0 106 3
130 28 200 124 360 563 658 1111 754 178 32 153 51 261 -203z m-16021 13 c680
-285 802 -351 999 -539 204 -195 325 -408 383 -672 25 -114 25 -395 0 -523
-60 -305 -169 -538 -358 -761 -251 -297 -590 -463 -984 -481 -152 -7 -293 9
-460 52 -164 43 -160 42 -718 275 -418 175 -511 220 -449 220 11 0 46 14 80
31 69 34 144 110 191 192 34 60 825 1944 862 2052 17 51 23 93 24 155 0 89
-13 128 -58 178 -15 16 -17 22 -7 22 8 0 231 -91 495 -201z m12881 -1165 c29
-136 52 -249 51 -251 -2 -1 -41 16 -86 40 l-83 42 -132 -1 c-114 0 -152 -5
-294 -38 -161 -37 -297 -77 -313 -93 -8 -8 152 -778 164 -789 3 -3 104 15 224
40 120 25 234 47 253 51 19 3 66 21 105 39 38 19 70 34 71 33 6 -8 99 -458 96
-462 -2 -2 -19 6 -36 19 -82 61 -192 62 -453 5 -103 -22 -189 -42 -191 -44 -4
-4 208 -997 215 -1004 4 -5 351 33 539 59 272 38 446 142 653 390 11 14 20 23
21 20 0 -16 -59 -602 -62 -605 -5 -5 -1634 -355 -1652 -355 -23 0 -20 8 13 36
65 54 97 177 81 313 -11 97 -432 2047 -466 2161 -52 172 -105 245 -197 276
-27 9 -45 19 -40 23 11 10 1272 281 1309 281 16 0 56 15 89 33 33 18 62 32 64
31 2 -2 27 -114 57 -250z m-8456 -100 c99 -7 293 -54 400 -96 524 -207 863
-634 931 -1173 16 -132 6 -392 -20 -505 -82 -357 -270 -678 -526 -898 -190
-165 -440 -282 -700 -329 -134 -25 -380 -22 -513 6 -654 136 -1125 614 -1227
1246 -16 98 -19 355 -5 420 89 415 219 675 455 911 206 206 454 340 740 399
94 19 259 34 330 29 28 -2 88 -6 135 -10z m5510 -281 c0 -5 -25 -30 -55 -56
-30 -26 -66 -68 -80 -91 -33 -57 -55 -161 -55 -266 0 -47 36 -652 79 -1345 44
-693 78 -1261 76 -1263 -6 -6 -157 49 -218 79 -78 39 -176 119 -270 219 -39
42 -425 502 -857 1022 -432 520 -786 945 -788 944 -8 -8 110 -1851 123 -1909
27 -130 77 -206 183 -279 38 -26 54 -48 35 -48 -5 0 -167 -9 -361 -21 -194
-11 -356 -19 -359 -16 -2 3 24 34 60 69 48 47 69 77 86 122 45 121 44 153 -19
1241 -33 556 -65 1044 -71 1085 -6 41 -20 98 -31 127 -22 59 -89 139 -154 184
-24 16 -44 33 -44 38 0 4 100 13 223 19 122 7 256 15 298 19 l77 6 16 -34 c9
-19 332 -412 717 -874 386 -462 769 -922 852 -1022 84 -100 153 -178 155 -174
7 20 -99 1735 -113 1816 -29 182 -63 247 -168 319 -31 22 -54 42 -51 45 3 3
162 16 352 27 191 12 350 22 355 23 4 0 7 -2 7 -6z"/>
<path d="M37240 10382 c0 -5 95 -238 211 -518 116 -280 214 -517 217 -526 6
-13 71 43 300 254 161 149 291 272 290 273 -5 4 -866 449 -945 489 -40 20 -73
32 -73 28z"/>
<path d="M16670 7127 c-136 -313 -819 -1960 -816 -1966 5 -8 151 -93 216 -126
62 -32 202 -75 315 -97 166 -33 384 -31 519 5 184 49 354 149 465 274 107 120
207 302 278 508 101 293 108 522 22 759 -113 314 -456 564 -917 670 l-64 15
-18 -42z"/>
<path d="M20877 5934 c-437 -79 -734 -409 -854 -949 -23 -108 -28 -340 -9
-457 64 -389 284 -706 599 -862 228 -114 477 -128 730 -42 318 108 555 389
663 782 143 527 -13 1090 -378 1362 -203 151 -486 214 -751 166z"/>
</g>
</svg>
